<svg width="16" height="16" viewBox="0 0 16 16" fill="none" xmlns="http://www.w3.org/2000/svg">
<rect width="16" height="16" fill="#F5F5F5"/>
<g id="endereco-01" clip-path="url(#clip0_728_2039)">
<rect width="1440" height="1400" transform="translate(-588 -343)" fill="#F7F7F7"/>
<g id="box-form">
<g id="endereco">
<g id="tab+content">
<g id="enderecos-cadastrados">
<mask id="path-1-inside-1_728_2039" fill="white">
<path d="M-118 -125H376C379.314 -125 382 -122.314 382 -119V84C382 87.3137 379.314 90 376 90H-112C-115.314 90 -118 87.3137 -118 84V-125Z"/>
</mask>
<path d="M-118 -125H376C379.314 -125 382 -122.314 382 -119V84C382 87.3137 379.314 90 376 90H-112C-115.314 90 -118 87.3137 -118 84V-125Z" fill="white"/>
<g id="btn-endereco">
<g id="box-main" filter="url(#filter0_d_728_2039)">
<g clip-path="url(#clip1_728_2039)">
<g id="bottom-options">
<mask id="path-6-inside-2_728_2039" fill="white">
<path d="M-98 -14H362V30H-98V-14Z"/>
</mask>
<path d="M-98 -14H362V30H-98V-14Z" fill="#F8FAFC"/>
<g id="truck-frete">
<g id="cta-alterar">
<g id="PencilSimple" clip-path="url(#clip2_728_2039)">
<path id="Vector" d="M5.79313 13.5H3C2.86739 13.5 2.74021 13.4473 2.64645 13.3535C2.55268 13.2598 2.5 13.1326 2.5 13V10.2069C2.50006 10.0744 2.55266 9.94743 2.64625 9.85374L10.3538 2.14624C10.4475 2.05254 10.5746 1.99991 10.7072 1.99991C10.8397 1.99991 10.9669 2.05254 11.0606 2.14624L13.8538 4.93749C13.9474 5.03125 14.0001 5.15837 14.0001 5.29093C14.0001 5.42348 13.9474 5.55061 13.8538 5.64436L6.14625 13.3537C6.05255 13.4473 5.92556 13.4999 5.79313 13.5Z" stroke="#2563EB" stroke-width="2" stroke-linecap="round" stroke-linejoin="round"/>
<path id="Vector_2" d="M8.5 4L12 7.5" stroke="#2563EB" stroke-width="2" stroke-linecap="round" stroke-linejoin="round"/>
</g>
</g>
</g>
<path d="M-98 -13H362V-15H-98V-13Z" fill="#CBD5E1" mask="url(#path-6-inside-2_728_2039)"/>
</g>
</g>
<rect x="-97" y="-104" width="458" height="133" rx="5" stroke="#659C57" stroke-width="2" shape-rendering="crispEdges"/>
</g>
</g>
<path d="M-119 -126H376C379.866 -126 383 -122.866 383 -119H381C381 -121.761 378.761 -124 376 -124H-117L-119 -126ZM383 84C383 87.866 379.866 91 376 91H-112C-115.866 91 -119 87.866 -119 84H-117C-117 86.7614 -114.761 89 -112 89H376C378.761 89 381 86.7614 381 84H383ZM-112 91C-115.866 91 -119 87.866 -119 84V-126L-117 -124V84C-117 86.7614 -114.761 89 -112 89V91ZM376 -126C379.866 -126 383 -122.866 383 -119V84C383 87.866 379.866 91 376 91V89C378.761 89 381 86.7614 381 84V-119C381 -121.761 378.761 -124 376 -124V-126Z" fill="#EAE3DA" mask="url(#path-1-inside-1_728_2039)"/>
</g>
</g>
</g>
</g>
</g>
<defs>
<filter id="filter0_d_728_2039" x="-102" y="-107" width="468" height="143" filterUnits="userSpaceOnUse" color-interpolation-filters="sRGB">
<feFlood flood-opacity="0" result="BackgroundImageFix"/>
<feColorMatrix in="SourceAlpha" type="matrix" values="0 0 0 0 0 0 0 0 0 0 0 0 0 0 0 0 0 0 127 0" result="hardAlpha"/>
<feOffset dy="2"/>
<feGaussianBlur stdDeviation="2"/>
<feComposite in2="hardAlpha" operator="out"/>
<feColorMatrix type="matrix" values="0 0 0 0 0 0 0 0 0 0 0 0 0 0 0 0 0 0 0.15 0"/>
<feBlend mode="normal" in2="BackgroundImageFix" result="effect1_dropShadow_728_2039"/>
<feBlend mode="normal" in="SourceGraphic" in2="effect1_dropShadow_728_2039" result="shape"/>
</filter>
<clipPath id="clip0_728_2039">
<rect width="1440" height="1400" fill="white" transform="translate(-588 -343)"/>
</clipPath>
<clipPath id="clip1_728_2039">
<rect x="-98" y="-105" width="460" height="135" rx="6" fill="white"/>
</clipPath>
<clipPath id="clip2_728_2039">
<rect width="16" height="16" fill="white"/>
</clipPath>
</defs>
</svg>
