<svg width="16" height="16" viewBox="0 0 16 16" fill="none" xmlns="http://www.w3.org/2000/svg">
<path d="M8 1.5C6.71442 1.5 5.45772 1.88122 4.3888 2.59545C3.31988 3.30968 2.48676 4.32484 1.99479 5.51256C1.50282 6.70028 1.37409 8.00721 1.6249 9.26809C1.8757 10.529 2.49477 11.6872 3.40381 12.5962C4.31285 13.5052 5.47104 14.1243 6.73192 14.3751C7.99279 14.6259 9.29973 14.4972 10.4874 14.0052C11.6752 13.5132 12.6903 12.6801 13.4046 11.6112C14.1188 10.5423 14.5 9.28558 14.5 8C14.4982 6.27665 13.8128 4.62441 12.5942 3.40582C11.3756 2.18722 9.72335 1.50182 8 1.5ZM8 13.5C6.91221 13.5 5.84884 13.1774 4.94437 12.5731C4.0399 11.9687 3.33495 11.1098 2.91867 10.1048C2.50238 9.09977 2.39347 7.9939 2.60568 6.927C2.8179 5.86011 3.34173 4.8801 4.11092 4.11091C4.8801 3.34172 5.86011 2.8179 6.92701 2.60568C7.9939 2.39346 9.09977 2.50238 10.1048 2.91866C11.1098 3.33494 11.9687 4.03989 12.5731 4.94436C13.1774 5.84883 13.5 6.9122 13.5 8C13.4983 9.45818 12.9184 10.8562 11.8873 11.8873C10.8562 12.9184 9.45819 13.4983 8 13.5ZM7 5C7 4.80222 7.05865 4.60888 7.16853 4.44443C7.27841 4.27998 7.43459 4.15181 7.61732 4.07612C7.80005 4.00043 8.00111 3.98063 8.19509 4.01921C8.38907 4.0578 8.56726 4.15304 8.70711 4.29289C8.84696 4.43275 8.9422 4.61093 8.98079 4.80491C9.01937 4.99889 8.99957 5.19996 8.92388 5.38268C8.8482 5.56541 8.72002 5.72159 8.55557 5.83147C8.39112 5.94135 8.19778 6 8 6C7.73479 6 7.48043 5.89464 7.2929 5.70711C7.10536 5.51957 7 5.26522 7 5ZM11.5 7C11.5 7.13261 11.4473 7.25979 11.3536 7.35355C11.2598 7.44732 11.1326 7.5 11 7.5H8.5V8.34875L10.4163 11.2238C10.4899 11.3341 10.5166 11.4693 10.4906 11.5994C10.4645 11.7295 10.3879 11.8439 10.2775 11.9175C10.1671 11.9911 10.032 12.0178 9.90189 11.9918C9.77179 11.9658 9.65735 11.8891 9.58375 11.7788L8 9.40375L6.41625 11.7788C6.37981 11.8334 6.33296 11.8804 6.27837 11.9169C6.22379 11.9535 6.16253 11.9789 6.09811 11.9918C5.96801 12.0178 5.8329 11.9911 5.7225 11.9175C5.61211 11.8439 5.53547 11.7295 5.50945 11.5994C5.48343 11.4693 5.51016 11.3341 5.58375 11.2238L7.5 8.34875V7.5H5C4.86739 7.5 4.74022 7.44732 4.64645 7.35355C4.55268 7.25979 4.5 7.13261 4.5 7C4.5 6.86739 4.55268 6.74021 4.64645 6.64645C4.74022 6.55268 4.86739 6.5 5 6.5H11C11.1326 6.5 11.2598 6.55268 11.3536 6.64645C11.4473 6.74021 11.5 6.86739 11.5 7Z" fill="white"/>
</svg>
