<svg xmlns="http://www.w3.org/2000/svg" xmlns:xlink="http://www.w3.org/1999/xlink" width="32" height="32" viewBox="0 0 32 32"><defs><clipPath id="b"><rect width="32" height="32"/></clipPath></defs><g id="a" clip-path="url(#b)"><circle cx="16" cy="16" r="16" fill="#2f1600"/><g transform="translate(5.456 5.491)"><path d="M121.256,81.171c0-.125-.105-.181-.328-.181a2.57,2.57,0,0,1-2.136-.925c-.766-1.213-.067-1.976-.306-2.85a1.426,1.426,0,0,0-2.211-.767c-1.113.709-.3,2.754,1.16,3.778a7.255,7.255,0,0,0,2.673,1.043,4.2,4.2,0,0,0,.869.073C121.188,81.344,121.256,81.286,121.256,81.171Z" transform="translate(-109.672 -63.81)" fill="#fff"/><g transform="translate(0 0)"><path d="M102.809,31.971a8.744,8.744,0,0,1-6.336,2.78c-5.074,0-9.188-4.508-9.188-10.07s3.758-10.047,8.831-10.047a5.887,5.887,0,0,1,4.246,1.556c.818.812.234,1.907.711,2.592a1.877,1.877,0,0,0,2.681.378,1.669,1.669,0,0,0-.243-2.444,10.249,10.249,0,0,0-7.345-2.543A10.57,10.57,0,0,0,85.259,24.657c0,5.8,5.041,10.51,11.262,10.51a11.7,11.7,0,0,0,7.293-2.5c.257-.2.419-.728.106-.976C103.481,31.34,102.99,31.783,102.809,31.971Z" transform="translate(-85.259 -14.173)" fill="#fff"/><path d="M128.83,35.223c-1.367-1.3-4.372-2.106-6.349-2.7-1.443-.472-2.08-1.311-2.076-2.312a2.2,2.2,0,0,1,1.975-2.136c.284-.076.246-.223.208-.3-.053-.106-.163-.157-.376-.106a5.7,5.7,0,0,0-2.113.987c-1.573,1.185-2.283,4.994,2.011,6.279.166.053,3.013,1.038,3.788,1.312,1.444.51,2.748,1.217,2.89,3.017a2.516,2.516,0,0,1-1.7,2.442c-.148.075-.144.164-.092.237s.181.112.385.019a5.934,5.934,0,0,0,1.7-1.253A3.787,3.787,0,0,0,128.83,35.223Z" transform="translate(-112.168 -24.957)" fill="#fff"/></g></g></g></svg>