<svg width="12" height="13" viewBox="0 0 12 13" fill="none" xmlns="http://www.w3.org/2000/svg">
<g clip-path="url(#clip0_7450_3075)">
<path d="M9.5 2.5H2.5C1.94772 2.5 1.5 2.94772 1.5 3.5V10.5C1.5 11.0523 1.94772 11.5 2.5 11.5H9.5C10.0523 11.5 10.5 11.0523 10.5 10.5V3.5C10.5 2.94772 10.0523 2.5 9.5 2.5Z" stroke="#659C57" stroke-width="1.4" stroke-linecap="round" stroke-linejoin="round"/>
<path d="M8 1.5V3.5" stroke="#659C57" stroke-width="1.4" stroke-linecap="round" stroke-linejoin="round"/>
<path d="M4 1.5V3.5" stroke="#659C57" stroke-width="1.4" stroke-linecap="round" stroke-linejoin="round"/>
<path d="M1.5 5.5H10.5" stroke="#659C57" stroke-width="1.4" stroke-linecap="round" stroke-linejoin="round"/>
<path d="M4 7.5H4.005" stroke="#659C57" stroke-width="1.4" stroke-linecap="round" stroke-linejoin="round"/>
<path d="M6 7.5H6.005" stroke="#659C57" stroke-width="1.4" stroke-linecap="round" stroke-linejoin="round"/>
<path d="M8 7.5H8.005" stroke="#659C57" stroke-width="1.4" stroke-linecap="round" stroke-linejoin="round"/>
<path d="M4 9.5H4.005" stroke="#659C57" stroke-width="1.4" stroke-linecap="round" stroke-linejoin="round"/>
<path d="M6 9.5H6.005" stroke="#659C57" stroke-width="1.4" stroke-linecap="round" stroke-linejoin="round"/>
<path d="M8 9.5H8.005" stroke="#659C57" stroke-width="1.4" stroke-linecap="round" stroke-linejoin="round"/>
</g>
<defs>
<clipPath id="clip0_7450_3075">
<rect width="12" height="12" fill="white" transform="translate(0 0.5)"/>
</clipPath>
</defs>
</svg>
