<svg width="15" height="14" viewBox="0 0 15 14" fill="none" xmlns="http://www.w3.org/2000/svg">
<path fill-rule="evenodd" clip-rule="evenodd" d="M13.1092 1.8778C13.1499 1.91844 13.1823 1.96672 13.2043 2.01987C13.2264 2.07302 13.2377 2.13 13.2377 2.18755C13.2377 2.2451 13.2264 2.30208 13.2043 2.35523C13.1823 2.40838 13.1499 2.45666 13.1092 2.4973L3.48419 12.1223C3.40204 12.2045 3.29062 12.2506 3.17444 12.2506C3.05826 12.2506 2.94684 12.2045 2.86469 12.1223C2.78254 12.0401 2.73639 11.9287 2.73639 11.8125C2.73639 11.6964 2.78254 11.585 2.86469 11.5028L12.4897 1.8778C12.5303 1.83706 12.5786 1.80473 12.6318 1.78268C12.6849 1.76062 12.7419 1.74927 12.7994 1.74927C12.857 1.74927 12.914 1.76062 12.9671 1.78268C13.0203 1.80473 13.0686 1.83706 13.1092 1.8778Z" fill="#374151"/>
<path fill-rule="evenodd" clip-rule="evenodd" d="M2.86468 1.8778C2.82393 1.91844 2.79161 1.96672 2.76955 2.01987C2.7475 2.07302 2.73615 2.13 2.73615 2.18755C2.73615 2.2451 2.7475 2.30208 2.76955 2.35523C2.79161 2.40838 2.82393 2.45666 2.86468 2.4973L12.4897 12.1223C12.5718 12.2045 12.6832 12.2506 12.7994 12.2506C12.9156 12.2506 13.027 12.2045 13.1092 12.1223C13.1913 12.0401 13.2375 11.9287 13.2375 11.8125C13.2375 11.6964 13.1913 11.585 13.1092 11.5028L3.48418 1.8778C3.44354 1.83706 3.39526 1.80473 3.34211 1.78268C3.28895 1.76062 3.23197 1.74927 3.17443 1.74927C3.11688 1.74927 3.0599 1.76062 3.00675 1.78268C2.9536 1.80473 2.90532 1.83706 2.86468 1.8778Z" fill="#374151"/>
</svg>
