<svg width="23" height="23" viewBox="0 0 23 23" fill="none" xmlns="http://www.w3.org/2000/svg">
<path d="M11.5 20.125C16.2635 20.125 20.125 16.2635 20.125 11.5C20.125 6.73654 16.2635 2.875 11.5 2.875C6.73654 2.875 2.875 6.73654 2.875 11.5C2.875 16.2635 6.73654 20.125 11.5 20.125Z" fill="white"/>
<path d="M10.7812 10.7812C10.9719 10.7812 11.1547 10.857 11.2895 10.9918C11.4243 11.1266 11.5 11.3094 11.5 11.5V15.0938C11.5 15.2844 11.5757 15.4672 11.7105 15.602C11.8453 15.7368 12.0281 15.8125 12.2188 15.8125" stroke="#9C2423" stroke-width="1.5" stroke-linecap="round" stroke-linejoin="round"/>
<path d="M11.1406 8.625C11.7361 8.625 12.2188 8.14231 12.2188 7.54688C12.2188 6.95144 11.7361 6.46875 11.1406 6.46875C10.5452 6.46875 10.0625 6.95144 10.0625 7.54688C10.0625 8.14231 10.5452 8.625 11.1406 8.625Z" fill="#9C2423"/>
</svg>
