<svg width="16" height="16" viewBox="0 0 16 16" fill="none" xmlns="http://www.w3.org/2000/svg">
<path d="M14.3535 4.85372L6.35354 12.8537C6.3071 12.9002 6.25196 12.9371 6.19126 12.9623C6.13056 12.9874 6.0655 13.0004 5.99979 13.0004C5.93408 13.0004 5.86902 12.9874 5.80832 12.9623C5.74762 12.9371 5.69248 12.9002 5.64604 12.8537L2.14604 9.35372C2.05222 9.2599 1.99951 9.13265 1.99951 8.99997C1.99951 8.86729 2.05222 8.74004 2.14604 8.64622C2.23986 8.5524 2.36711 8.49969 2.49979 8.49969C2.63247 8.49969 2.75972 8.5524 2.85354 8.64622L5.99979 11.7931L13.646 4.14622C13.7399 4.0524 13.8671 3.99969 13.9998 3.99969C14.1325 3.99969 14.2597 4.0524 14.3535 4.14622C14.4474 4.24004 14.5001 4.36729 14.5001 4.49997C14.5001 4.63265 14.4474 4.7599 14.3535 4.85372Z" fill="white"/>
</svg>
