<svg width="38" height="38" viewBox="0 0 38 38" fill="none" xmlns="http://www.w3.org/2000/svg">
    <path fill-rule="evenodd" clip-rule="evenodd" d="M24.1223 13.8777C24.1631 13.9184 24.1954 13.9667 24.2174 14.0198C24.2395 14.073 24.2508 14.1299 24.2508 14.1875C24.2508 14.245 24.2395 14.302 24.2174 14.3552C24.1954 14.4083 24.1631 14.4566 24.1223 14.4972L14.4973 24.1222C14.4152 24.2044 14.3037 24.2505 14.1876 24.2505C14.0714 24.2505 13.96 24.2044 13.8778 24.1222C13.7957 24.0401 13.7495 23.9287 13.7495 23.8125C13.7495 23.6963 13.7957 23.5849 13.8778 23.5027L23.5028 13.8777C23.5435 13.837 23.5917 13.8047 23.6449 13.7826C23.698 13.7606 23.755 13.7492 23.8126 13.7492C23.8701 13.7492 23.9271 13.7606 23.9802 13.7826C24.0334 13.8047 24.0817 13.837 24.1223 13.8777Z" fill="#374151"/>
    <path fill-rule="evenodd" clip-rule="evenodd" d="M13.8778 13.8777C13.8371 13.9184 13.8047 13.9667 13.7827 14.0198C13.7606 14.073 13.7493 14.1299 13.7493 14.1875C13.7493 14.245 13.7606 14.302 13.7827 14.3552C13.8047 14.4083 13.8371 14.4566 13.8778 14.4972L23.5028 24.1222C23.585 24.2044 23.6964 24.2505 23.8125 24.2505C23.9287 24.2505 24.0401 24.2044 24.1223 24.1222C24.2045 24.0401 24.2506 23.9287 24.2506 23.8125C24.2506 23.6963 24.2045 23.5849 24.1223 23.5027L14.4973 13.8777C14.4567 13.837 14.4084 13.8047 14.3552 13.7826C14.3021 13.7606 14.2451 13.7492 14.1875 13.7492C14.13 13.7492 14.073 13.7606 14.0199 13.7826C13.9667 13.8047 13.9184 13.837 13.8778 13.8777Z" fill="#374151"/>
</svg>
