<svg width="12" height="12" viewBox="0 0 12 12" fill="none" xmlns="http://www.w3.org/2000/svg">
<path d="M10.0153 4.76552L6.26534 8.51552C6.23051 8.55039 6.18915 8.57805 6.14363 8.59692C6.0981 8.61579 6.04931 8.6255 6.00003 8.6255C5.95074 8.6255 5.90195 8.61579 5.85642 8.59692C5.8109 8.57805 5.76954 8.55039 5.73471 8.51552L1.98471 4.76552C1.91435 4.69516 1.87482 4.59972 1.87482 4.50021C1.87482 4.4007 1.91435 4.30526 1.98471 4.2349C2.05508 4.16453 2.15051 4.125 2.25003 4.125C2.34954 4.125 2.44497 4.16453 2.51534 4.2349L6.00003 7.72005L9.48471 4.2349C9.51955 4.20005 9.56092 4.17242 9.60644 4.15356C9.65196 4.1347 9.70075 4.125 9.75003 4.125C9.7993 4.125 9.84809 4.1347 9.89361 4.15356C9.93913 4.17242 9.9805 4.20005 10.0153 4.2349C10.0502 4.26974 10.0778 4.3111 10.0967 4.35662C10.1155 4.40214 10.1252 4.45094 10.1252 4.50021C10.1252 4.54948 10.1155 4.59827 10.0967 4.64379C10.0778 4.68932 10.0502 4.73068 10.0153 4.76552Z" fill="white"/>
</svg>
