<svg width="40" height="37" viewBox="0 0 40 37" fill="none" xmlns="http://www.w3.org/2000/svg">
<path d="M16.0131 35.3077C16.0131 35.3077 4.01306 28.8462 4.01306 21.2308C4.01306 19.5783 4.66952 17.9934 5.83801 16.825C7.00651 15.6565 8.59133 15 10.2438 15C12.8504 15 15.0831 16.4204 16.0131 18.6923C16.9431 16.4204 19.1758 15 21.7823 15C23.4348 15 25.0196 15.6565 26.1881 16.825C27.3566 17.9934 28.0131 19.5783 28.0131 21.2308C28.0131 28.8462 16.0131 35.3077 16.0131 35.3077Z" stroke="black" stroke-width="2" stroke-linecap="round" stroke-linejoin="round"/>
<rect x="17.0261" width="22" height="22" rx="11" fill="#3B82F6"/>
<path fill-rule="evenodd" clip-rule="evenodd" d="M26.4107 14.799L22.603 10.9683C22.4645 10.8298 22.4645 10.599 22.603 10.4606L23.1107 9.95288C23.2491 9.81442 23.4799 9.81442 23.6184 9.95288L26.4799 12.8375C26.5722 12.9298 26.7338 12.9298 26.8261 12.8375L32.4338 7.18365C32.5722 7.04519 32.803 7.04519 32.9415 7.18365L33.4491 7.69134C33.5876 7.8298 33.5876 8.06057 33.4491 8.19903L26.9184 14.799C26.7799 14.9606 26.5491 14.9606 26.4107 14.799Z" fill="white"/>
</svg>
