<svg width="40" height="37" viewBox="0 0 40 37" fill="none" xmlns="http://www.w3.org/2000/svg">
    <g clip-path="url(#clip0_2726_35169)">
        <path d="M19.6875 29.125H9.09672C8.68689 29.1249 8.29008 28.981 7.97547 28.7184C7.66086 28.4558 7.44841 28.091 7.37516 27.6878L4.585 12.3436C4.54837 12.142 4.44215 11.9596 4.28484 11.8283C4.12754 11.697 3.92913 11.625 3.72422 11.625H1.75" stroke="#591F12" stroke-width="1.5" stroke-linecap="round" stroke-linejoin="round"/>
        <path d="M9.1875 33.5C10.3956 33.5 11.375 32.5206 11.375 31.3125C11.375 30.1044 10.3956 29.125 9.1875 29.125C7.97938 29.125 7 30.1044 7 31.3125C7 32.5206 7.97938 33.5 9.1875 33.5Z" stroke="#591F12" stroke-width="1.5" stroke-linecap="round" stroke-linejoin="round"/>
        <path d="M19.6875 33.5C20.8956 33.5 21.875 32.5206 21.875 31.3125C21.875 30.1044 20.8956 29.125 19.6875 29.125C18.4794 29.125 17.5 30.1044 17.5 31.3125C17.5 32.5206 18.4794 33.5 19.6875 33.5Z" stroke="#591F12" stroke-width="1.5" stroke-linecap="round" stroke-linejoin="round"/>
        <path d="M6.84141 24.75H20.5734C20.9833 24.7499 21.3801 24.606 21.6947 24.3434C22.0093 24.0808 22.2217 23.716 22.295 23.3128L23.625 16H5.25" fill="#591F12"/>
        <path d="M6.84141 24.75H20.5734C20.9833 24.7499 21.3801 24.606 21.6947 24.3434C22.0093 24.0808 22.2217 23.716 22.295 23.3128L23.625 16H5.25" stroke="#591F12" stroke-width="1.5" stroke-linecap="round" stroke-linejoin="round"/>
    </g>
    <rect x="17.0261" width="22" height="22" rx="11" fill="#F87171"/>
    <path fill-rule="evenodd" clip-rule="evenodd" d="M33.1483 5.87775C33.1891 5.91839 33.2214 5.96667 33.2434 6.01982C33.2655 6.07298 33.2768 6.12996 33.2768 6.1875C33.2768 6.24505 33.2655 6.30203 33.2434 6.35518C33.2214 6.40834 33.1891 6.45661 33.1483 6.49725L23.5233 16.1223C23.4412 16.2044 23.3297 16.2506 23.2136 16.2506C23.0974 16.2506 22.986 16.2044 22.9038 16.1223C22.8217 16.0401 22.7755 15.9287 22.7755 15.8125C22.7755 15.6963 22.8217 15.5849 22.9038 15.5028L32.5288 5.87775C32.5695 5.83701 32.6177 5.80469 32.6709 5.78263C32.724 5.76057 32.781 5.74922 32.8386 5.74922C32.8961 5.74922 32.9531 5.76057 33.0062 5.78263C33.0594 5.80469 33.1077 5.83701 33.1483 5.87775Z" fill="white"/>
    <path fill-rule="evenodd" clip-rule="evenodd" d="M22.9039 5.87775C22.8632 5.91839 22.8309 5.96667 22.8088 6.01982C22.7867 6.07298 22.7754 6.12996 22.7754 6.1875C22.7754 6.24505 22.7867 6.30203 22.8088 6.35518C22.8309 6.40834 22.8632 6.45661 22.9039 6.49725L32.5289 16.1223C32.6111 16.2044 32.7225 16.2506 32.8387 16.2506C32.9549 16.2506 33.0663 16.2044 33.1484 16.1223C33.2306 16.0401 33.2767 15.9287 33.2767 15.8125C33.2767 15.6963 33.2306 15.5849 33.1484 15.5028L23.5234 5.87775C23.4828 5.83701 23.4345 5.80469 23.3814 5.78263C23.3282 5.76057 23.2712 5.74922 23.2137 5.74922C23.1561 5.74922 23.0991 5.76057 23.046 5.78263C22.9928 5.80469 22.9446 5.83701 22.9039 5.87775Z" fill="white"/>
    <defs>
        <clipPath id="clip0_2726_35169">
            <rect width="28" height="28" fill="white" transform="translate(0 9)"/>
        </clipPath>
    </defs>
</svg>
