<svg width="40" height="37" viewBox="0 0 40 37" fill="none" xmlns="http://www.w3.org/2000/svg">
<g clip-path="url(#clip0_10430_3494)">
<path d="M19.6875 29.125H9.09672C8.68689 29.1249 8.29008 28.981 7.97547 28.7184C7.66086 28.4558 7.44841 28.091 7.37516 27.6878L4.585 12.3436C4.54837 12.142 4.44215 11.9596 4.28484 11.8283C4.12754 11.697 3.92913 11.625 3.72422 11.625H1.75" stroke="#591F12" stroke-width="1.5" stroke-linecap="round" stroke-linejoin="round"/>
<path d="M9.1875 33.5C10.3956 33.5 11.375 32.5206 11.375 31.3125C11.375 30.1044 10.3956 29.125 9.1875 29.125C7.97938 29.125 7 30.1044 7 31.3125C7 32.5206 7.97938 33.5 9.1875 33.5Z" stroke="#591F12" stroke-width="1.5" stroke-linecap="round" stroke-linejoin="round"/>
<path d="M19.6875 33.5C20.8956 33.5 21.875 32.5206 21.875 31.3125C21.875 30.1044 20.8956 29.125 19.6875 29.125C18.4794 29.125 17.5 30.1044 17.5 31.3125C17.5 32.5206 18.4794 33.5 19.6875 33.5Z" stroke="#591F12" stroke-width="1.5" stroke-linecap="round" stroke-linejoin="round"/>
<path d="M6.84141 24.75H20.5734C20.9833 24.7499 21.3801 24.606 21.6947 24.3434C22.0093 24.0808 22.2217 23.716 22.295 23.3128L23.625 16H5.25" fill="#591F12"/>
<path d="M6.84141 24.75H20.5734C20.9833 24.7499 21.3801 24.606 21.6947 24.3434C22.0093 24.0808 22.2217 23.716 22.295 23.3128L23.625 16H5.25" stroke="#591F12" stroke-width="1.5" stroke-linecap="round" stroke-linejoin="round"/>
</g>
<rect x="17.0261" width="22" height="22" rx="11" fill="#659C57"/>
<path fill-rule="evenodd" clip-rule="evenodd" d="M26.4108 14.799L22.6031 10.9683C22.4647 10.8298 22.4647 10.599 22.6031 10.4606L23.1108 9.95288C23.2493 9.81442 23.48 9.81442 23.6185 9.95288L26.48 12.8375C26.5723 12.9298 26.7339 12.9298 26.8262 12.8375L32.4339 7.18365C32.5723 7.04519 32.8031 7.04519 32.9416 7.18365L33.4493 7.69134C33.5877 7.8298 33.5877 8.06057 33.4493 8.19903L26.9185 14.799C26.78 14.9606 26.5493 14.9606 26.4108 14.799Z" fill="white"/>
<defs>
<clipPath id="clip0_10430_3494">
<rect width="28" height="28" fill="white" transform="translate(0 9)"/>
</clipPath>
</defs>
</svg>
